<?xml version="1.0" encoding="UTF-8"?>
<!DOCTYPE svg PUBLIC "-//W3C//DTD SVG 1.1//EN"
  "http://www.w3.org/Graphics/SVG/1.1/DTD/svg11.dtd">
<!-- Created with Inkpad (http://www.taptrix.com/) --><svg xmlns:inkpad="http://taptrix.com/inkpad/svg_extensions" height="938pt" xmlns:xlink="http://www.w3.org/1999/xlink" xmlns="http://www.w3.org/2000/svg" width="3769pt" version="1.1" viewBox="0,0,3769,938">
<defs>
<path id="TextPath" d="M1471.56+733.984L3471.56+733.984" transform="matrix(1 -0 -0 1 80 2800)"/>
</defs>
<g id="Untitled" inkpad:layerName="Untitled" visibility="hidden">
<path d="M-47.2325+267.814C-34.3094+268.067-20.1966+269.988-7.37608+268.785C-8.16239+245.974-10.3504+221.154-1.23589+199.581C18.9761+151.745+78.7778+150.453+121.882+162.774C119.044+178.453+121.212+195.123+117.718+210.583C98.7573+208.894+66.5521+200.737+58.1008+225.284C53.547+238.508+56.3573+253.632+55.4957+267.233C60.0085+269.181+65.6701+267.93+70.518+268.019C84.5555+268.272+99.1744+267.964+113.15+266.809C112.432+281.236+109.793+302.104+113.711+315.998C94.5111+315.41+75.147+315.971+55.9812+316.689C56.0222+360.251+55.4274+403.875+55.4+447.458C55.3932+469.468+58.5179+494.268+54.9214+515.957C34.2239+515.909+13.6496+516.135-7.0547+516.6C-12.3675+450.234-4.74358+382.125-7.37608+315.52C-20.3128+316.969-33.4821+315.287-46.4188+317.4C-49.0923+301.359-45.7897+284.101-47.2325+267.814Z" opacity="1" fill="#0b223e"/>
<path d="M128.467+379.8C130.285+348.928+140.932+315.985+163.482+294.07C205.157+253.578+286.627+251.219+332.528+285.892C367.995+312.675+381.424+359.533+378.805+402.344C376.672+437.14+363.81+471.786+336.706+494.809C287.25+536.826+198.279+530.583+156.063+481.345C132.309+453.632+126.381+415.164+128.467+379.8ZM195.927+362.467C190.08+392.149+191.598+434.631+214.306+457.325C234.374+477.386+272.597+477.263+293.615+458.467C303.995+449.181+308.952+435.636+311.68+422.316C317.52+393.81+317.677+351.93+296.74+328.99C278.511+309.024+241.041+305.735+219.311+321.516C206.272+330.986+198.962+347.068+195.927+362.467Z" opacity="1" fill="#0b2341"/>
<path d="M426.368+513.352C428.904+432.114+421.226+349.441+427.803+268.429C446.08+269.126+464.672+267.349+482.88+269.051C483.092+282.891+484.48+296.75+484.323+310.59C491.427+306.583+495.345+293.687+501.547+287.643C521.28+268.409+541.383+265.017+567.879+264.19C569.089+277.475+567.291+291.677+566.484+304.99C566.183+309.851+567.243+318.145+565.499+322.371C551.954+322.993+538.032+322.59+525.021+327.027C477.212+343.321+488.672+404.805+488.357+443.985C488.179+466.002+483.113+495.677+489.055+516.873C468.132+517.776+447.024+514.952+425.862+516.764C426.032+515.629+426.203+514.494+426.368+513.352Z" opacity="1" fill="#0b2440"/>
<path d="M609.274+268.313C626.566+269.086+646.429+270.207+663.427+266.877C663.25+277.646+664.18+288.539+664.385+299.328C667.468+300.969+671.619+293.4+673.273+291.479C680.856+282.645+690.504+275.677+701.144+271.034C740.72+253.762+792.713+262.781+816.193+300.648C825.472+290.597+833.718+280.477+846.087+273.803C888.111+251.137+954.08+259.779+975.133+306.446C990.176+339.793+984.159+382.501+983.988+418.002C983.838+449.598+988.337+484.443+982.99+515.568C961.8+514.843+940.802+516.026+919.742+516.381C921.062+471.944+919.776+427.397+919.503+382.945C919.393+365.838+922.566+342.35+910.114+328.525C889.656+305.803+841.075+315.301+830.901+344.402C824.46+362.829+827.947+387.137+827.913+406.412C827.851+442.002+822.504+482.132+827.913+517.236C807.373+517.544+786.279+517.619+765.752+517.065C764.932+473.667+765.588+430.207+765.472+386.781C765.431+369.981+768.234+345.612+758.258+331.096C739.236+303.39+684.255+316.559+672.672+345.427C666.655+360.422+670.832+383.65+670.873+399.588C670.949+425.797+671.003+452.019+670.826+478.227C670.744+490.74+668.87+504.833+670.771+517.167C650.641+517.619+628.166+518.549+608.2+516.367C608.091+460.354+608.125+404.326+607.933+348.313C607.851+323.547+602.046+292.08+609.274+268.313Z" opacity="1" fill="#0a223e"/>
<path d="M684.631-1184.53C697.738-1188.46+720.357-1188.15+733.492-1184.6C729.02-1169.79+731.872-1150.91+731.749-1135.45C731.468-1102.4+731.55-1069.35+731.598-1036.3C731.756-928.173+731.598-820.043+731.981-711.92C732.091-679.797+731.646-647.468+733.144-615.379C734.108-594.661+737.615-574.142+755.94-561.451C773.827-549.068+798.696-553.178+819.195-553.321C862.497-553.615+905.8-553.643+949.103-553.663C1061.92-553.718+1174.74-553.793+1287.56-553.656C1347.22-553.581+1407.65-550.6+1467.21-553.424C1466.39-537.239+1468.57-519.502+1471.21-503.53C1296.06-502.039+1120.86-501.656+945.684-501.533C902.368-501.499+859.051-501.356+815.735-501.226C786.778-501.144+757.526-498.723+731.81-514.586C674.716-549.814+681.8-616.747+681.711-674.976C681.52-790.874+681.513-906.778+681.663-1022.68C681.711-1056.76+681.8-1090.85+681.711-1124.95C681.656-1144.02+679.106-1166.11+684.631-1184.53Z" opacity="1" fill="#fa8a09"/>
<path d="M685.164-1839.17C686.525-1844.47+687.906-1849.57+689.848-1854.69C694.641-1861.43+704.467-1868.98+713.239-1866.15C724.651-1862.47+735.523-1851.84+745.15-1844.94C764.788-1830.87+784.487-1816.94+804.015-1802.72C813.061-1796.12+822.08-1789.59+830.764-1782.52C832.2-1781.36+838.798-1777.94+838.491-1776.02C827.626-1763.84+818.668-1749.95+808.002-1737.83C796.774-1741.24+783.448-1756.12+773.8-1763.13C755.667-1776.32+737.526-1789.65+719.072-1802.35C707.899-1810.04+694.853-1816.86+685.581-1826.83C683.94-1831.02+684.426-1834.79+685.164-1839.17Z" opacity="1" fill="#6bb3e8"/>
<path d="M1598.34-1362.72C1607.26-1357.4+1614.44-1347.47+1622.06-1340.3C1651.82-1297.49+1642.22-1233.08+1641.27-1183.53C1640.37-1186.36+1632.08-1185.49+1629.48-1185.58C1617.96-1185.99+1606.22-1186.76+1594.74-1185.49C1574.29-1181.57+1547.98-1185.96+1526.87-1186C1480.14-1186.08+1433.41-1185.88+1386.68-1185.72C1241.94-1185.23+1097.2-1185.14+952.46-1185.24C903.462-1185.27+854.456-1185.32+805.458-1185.16C781.868-1185.09+756.891-1187.43+733.492-1184.6C720.357-1188.15+697.738-1188.46+684.631-1184.53C680.446-1202.34+683.051-1223.17+683.044-1241.45C683.038-1263.16+680.945-1287.24+686.662-1308.4C694.641-1337.94+719.482-1361.54+749.226-1368.56C788.056-1377.73+833.103-1372.04+872.788-1372.04C894.6-1372.04+921.191-1376.33+942.525-1371.67C948.788-1370.3+955.284-1362.66+960.583-1359.2C974.368-1350.2+988.74-1342.19+1003.57-1335.05C1055.38-1310.12+1110.91-1289.06+1167.67-1279.11C1269.15-1261.33+1373.81-1268.85+1470.91-1304.02C1515.32-1320.1+1555.18-1344.54+1598.34-1362.72ZM777.424-1289.03C761.766-1249.9+821.492-1229.42+835.783-1267.8C848.959-1303.18+791.974-1325.4+777.424-1289.03ZM879.503-1285.7C868.002-1247.29+927.995-1228.9+939.133-1266.83C950.525-1305.6+891.749-1326.59+879.503-1285.7ZM982.805-1285.4C970.573-1248.01+1027.56-1227.89+1042.13-1263.64C1058.59-1304.02+996.651-1327.72+982.805-1285.4Z" opacity="1" fill="#0b223f"/>
<path d="M753.581-1610.87C794.6-1659.26+837.321-1706.98+887.168-1746.58C1009.6-1843.84+1169.39-1912.87+1328.44-1894.36C1386.31-1887.63+1445.16-1872.58+1498.7-1849.62C1556.73-1824.73+1612.27-1791.25+1661.51-1751.76C1695.58-1724.45+1726.68-1694.4+1757.27-1663.29C1773.37-1646.91+1794.32-1629.46+1805.29-1609.02C1798.38-1592.93+1779.42-1578.55+1768.03-1565.34C1730.78-1522.17+1688.73-1481.94+1641.76-1449.46C1578.09-1405.43+1509.5-1366.16+1435.12-1343.14C1285.43-1296.82+1124.88-1322.81+989.964-1399.29C919.496-1439.24+853.082-1491.69+798.703-1551.69C786.935-1564.66+774.86-1577.38+763.38-1590.61C759.215-1595.42+751.181-1601.86+751.571-1608C752.241-1608.96+752.911-1609.92+753.581-1610.87ZM821.52-1610.04C821.28-1609.04+821.041-1608.04+820.795-1607.04C849.8-1581.7+873.841-1550.21+903.058-1524.62C961.397-1473.53+1030.14-1432.51+1102.2-1403.95C1276.98-1334.67+1469.66-1384.45+1615.85-1494.58C1658.8-1526.94+1705.65-1563.55+1737.44-1607.58C1737.51-1610.63+1728.9-1616.71+1726.7-1619.06C1716.96-1629.46+1707.09-1639.69+1696.83-1649.59C1652.02-1692.91+1604.43-1731.67+1551.8-1765.11C1514.62-1788.73+1474.08-1806.24+1432.17-1819.52C1382.52-1835.26+1329.67-1846.35+1277.37-1846.17C1097.12-1845.53+940.07-1735.78+821.52-1610.04Z" opacity="1" fill="#68b2e9"/>
<path d="M807.831-1955.47C813.171-1968.56+826.88-1988.45+843.968-1980.64C856.501-1974.91+864.022-1954.5+871.742-1943.76C894.962-1911.44+919.215-1879.12+941.725-1846.5C930.429-1845.42+918.867-1834.59+910.703-1827.5C908.036-1825.19+902.559-1819.47+899.373-1820.58C880.542-1853.46+856.029-1884.29+834.156-1915.22C826.648-1925.84+809.027-1942.62+807.831-1955.47Z" opacity="1" fill="#6ab0e5"/>
<path d="M838.586-917.485C865.889-929.992+891.325-946.573+917.636-960.986C951.256-979.407+985.971-997.171+1018.37-1017.63C1019.5-998.819+1019.86-978.176+1018.97-959.359C989.315-946.162+961.191-927.236+933.048-911.044C916.98-901.793+897.978-894.791+883.516-883.243C893.704-872.809+909.082-866.566+921.684-859.297C953.574-840.911+989.034-823.653+1018.64-801.937C1020.6-798.012+1019.32-790.839+1019.32-786.408C1019.32-772.747+1019.27-759.085+1019.39-745.431C1016.94-744.091+1009.64-750.621+1007.23-752.145C996.631-758.86+985.458-764.679+974.689-771.113C946.203-788.118+916.87-803.858+887.974-820.159C872.884-828.672+857.424-839.133+840.959-844.692C837.376-849.547+839.277-859.092+839.133-865.062C838.716-882.539+838.99-900.015+838.586-917.485Z" opacity="1" fill="#6cb2e8"/>
<path d="M961.301-2037.68C967.455-2054.55+990.142-2066.56+1005.99-2054.64C1016.55-2039.39+1018.96-2015.43+1023.8-1997.68C1029.64-1976.28+1035.55-1954.81+1041.73-1933.52C1044.91-1922.58+1050.48-1909.74+1051.26-1898.42C1041.83-1892.3+1027.13-1890.59+1016.56-1886.2C1012.97-1884.71+1008.73-1881.15+1004.99-1882.61C994.333-1933.85+976.35-1983.94+961.485-2034.04C961.424-2035.26+961.362-2036.47+961.301-2037.68Z" opacity="1" fill="#6fb4e8"/>
<path d="M1027.19+420.559C1044.02+371.882+1092.74+364.443+1138.42+365.79C1147.55+366.056+1172.34+364.518+1179.5+370.624C1177.53+356.88+1182.87+339.827+1173.82+327.574C1166.19+317.25+1150.68+314.576+1138.85+313.393C1107.89+310.289+1079.84+318.535+1051.62+329.988C1045.2+320.046+1045.81+294.727+1044.81+282.822C1057.36+273.79+1074.87+269.824+1089.92+267C1136.13+258.337+1207.99+256.853+1231.49+307.718C1242.03+330.514+1240.69+357.564+1240.48+382.063C1240.25+410.022+1241.4+437.954+1241.52+465.845C1249.45+467.622+1258.1+466.508+1266.2+467.827C1269.65+479.39+1271.1+502.2+1266.17+513.42C1249.29+523.219+1217.96+520.06+1202.69+508.176C1197.35+504.019+1190.59+491.615+1185.09+489.694C1132.58+556.805+1002.11+510.959+1027.19+420.559ZM1085.92+441.516C1088.98+485.332+1153.82+487.082+1174.98+455.198C1179.76+447.998+1179.52+437.858+1179.72+429.578C1179.84+424.217+1181.95+414.056+1179.4+409.455C1145.81+403.95+1090.08+395.212+1085.92+441.516Z" opacity="1" fill="#0a2240"/>
<path d="M1047.91-683.742C1074.4-758.942+1096.31-835.756+1121.68-911.345C1141.68-970.962+1164.25-1030.5+1181.12-1091.03C1198.89-1091.55+1216.73-1091.14+1234.52-1091.35C1236.1-1087.03+1227.63-1070.05+1225.94-1064.87C1217.12-1037.66+1208.38-1010.43+1199.56-983.215C1176.59-912.275+1152.79-841.629+1130.68-770.422C1121.24-740.036+1105.46-708.357+1101.25-676.727C1083.5-675.359+1065.43-677.868+1047.69-675.674C1045.5-678.689+1047.11-680.296+1047.91-683.742Z" opacity="1" fill="#69b0e7"/>
<path d="M1054.92-1620.19C1056.84-1651.57+1065.23-1682.42+1079.83-1710.31C1093.04-1735.55+1110.64-1756.54+1131.86-1775.34C1150-1791.39+1170.92-1803.33+1193.29-1812.41C1232.7-1828.41+1275.93-1834.33+1317.94-1825.79C1424.01-1804.21+1499.97-1703.95+1493.77-1596.75C1491.99-1566.11+1483.73-1536.14+1470.04-1508.72C1457.6-1483.84+1439.48-1460.76+1417.89-1443.21C1379.69-1412.13+1333-1394.56+1283.99-1391.32C1186.08-1384.86+1091.42-1453.69+1063.89-1546.53C1057.01-1569.74+1053.44-1595.96+1054.92-1620.19ZM1376.92-1660.32C1378.57-1666.51+1388.55-1671.97+1392.37-1677.45C1406-1696.99+1407.5-1723.21+1395-1743.84C1372.88-1780.36+1320.56-1782.93+1296.48-1747.85C1292-1741.33+1287.36-1732.44+1287.17-1724.41C1178.94-1742.01+1120.11-1593.31+1200.96-1525.49C1255.28-1479.92+1340.72-1494.98+1373.59-1558.57C1383.04-1576.86+1386.71-1597.77+1385.99-1618.19C1385.51-1631.77+1382.88-1648.04+1376.92-1660.32Z" opacity="1" fill="#71baef"/>
<path d="M1287.17-1724.41C1281.68-1690.88+1305.56-1658.64+1339.17-1654.05C1352.58-1652.22+1364.22-1657.12+1376.92-1660.32C1382.88-1648.04+1385.51-1631.77+1385.99-1618.19C1386.71-1597.77+1383.04-1576.86+1373.59-1558.57C1340.72-1494.98+1255.28-1479.92+1200.96-1525.49C1120.11-1593.31+1178.94-1742.01+1287.17-1724.41Z" opacity="1" fill="#0a2442"/>
<path d="M1191.11-2133.21C1194.07-2143.34+1197.84-2152.87+1203.43-2161.88C1234.09-2211.31+1304.07-2199.48+1353.68-2199.16C1510.95-2198.16+1668.28-2198.51+1825.62-2199.06C1874.33-2199.22+1923.03-2199.58+1971.71-2198.01C1982.96-2197.65+1994.22-2197.54+2005.46-2197.22C2007.12-2197.17+2016.99-2198.09+2018.07-2196.59C2019.06-2195.24+2015.93-2193.99+2014.61-2192.96C2009.51-2188.97+2003.52-2186.16+1998.49-2182.06C1985.34-2171.38+1972.89-2159.43+1961.85-2146.59C1929.62-2109.09+1909.42-2066.44+1894.75-2019.76C1843.13-2016.6+1790.53-2019.22+1738.83-2019.32C1630.57-2019.54+1522.29-2020.64+1414.04-2020.16C1376.43-2019.99+1338.81-2019.78+1301.2-2019.63C1282.18-2019.55+1261.51-2021.79+1242.69-2019.03C1242.61-2002.57+1242.13-1986.15+1242.46-1969.68C1242.61-1962.7+1245.1-1952.58+1242.07-1946.18C1230.03-1946.16+1217.39-1944.85+1205.4-1943.55C1200.46-1943.02+1195.39-1940.29+1190.42-1941.31C1194.72-1986.39+1189.8-2033.75+1189.53-2079.06C1189.43-2096.84+1187.66-2115.67+1191.11-2133.21ZM1297.37-2116.15C1288.25-2081.52+1346.61-2064.17+1357.45-2097.31C1371.03-2138.83+1308.95-2160.12+1297.37-2116.15ZM1399.89-2112.6C1393.59-2074.9+1457.1-2065.34+1462.25-2104.74C1467.77-2146.98+1406.76-2153.72+1399.89-2112.6ZM1505.31-2119.93C1490.4-2083.67+1547.01-2060.35+1562.52-2095.7C1578.9-2132.99+1521.98-2160.47+1505.31-2119.93Z" opacity="1" fill="#64b1e8"/>
<path d="M1198.18-430.586C1205.03-465.335+1243.17-455.838+1270.49-455.831C1342.39-455.81+1414.72-454.525+1486.57-456.631C1491.22-439.058+1499.03-422.853+1504.6-405.643C1482.42-409.055+1457.08-406.012+1434.59-406.019C1383.29-406.046+1332-404.993+1280.71-404.904C1264.74-404.877+1248.77-404.856+1232.81-404.631C1224.97-404.521+1215.89-402.771+1208.3-404.781C1202.07-412.487+1198.11-420.576+1198.18-430.586Z" opacity="1" fill="#f88d14"/>
<path d="M1259.09-800.952C1288.25-816.084+1316.45-833.342+1345.08-849.513C1361.83-858.969+1382.18-867.236+1396.94-879.626C1391.55-889.821+1370.85-897.26+1361.08-902.839C1328.32-921.527+1295.93-941.123+1261.81-957.232C1259.76-976.412+1261.9-996.344+1261.44-1015.63C1278.05-1010.55+1294.21-998.723+1309.35-990.101C1337.42-974.115+1365.59-958.286+1393.75-942.422C1405.63-935.721+1417.48-928.966+1429.31-922.197C1433.31-919.913+1439.51-918.306+1441.92-914.265C1441.62-898.655+1441.63-883.065+1441.14-867.448C1440.92-860.822+1442.7-852.802+1440.77-846.436C1431.48-838.75+1418.73-833.663+1408.22-827.68C1386.1-815.085+1363.87-802.689+1341.59-790.354C1316.2-776.303+1289.9-755.209+1262.35-746.156C1258.33-763.147+1260.79-783.352+1259.09-800.952Z" opacity="1" fill="#69b2e8"/>
<path d="M1279.77+268.292C1292.98+267.061+1306.2+268.956+1319.41+268.395C1319.74+246.604+1320.73+224.819+1319.86+203.02C1333.49+202.268+1347.12+202.207+1360.74+201.209C1366.14+200.812+1375.23+198.07+1380.22+200.012C1381.41+222.036+1382.6+246.084+1380.6+268.073C1397.93+271.287+1421.69+269.25+1439.25+267.383C1438.07+283.602+1437.85+299.985+1439.35+316.169C1420.73+313.858+1400.55+315.8+1381.84+316.32C1378.61+327.014+1381.09+340.607+1381.08+351.711C1381.03+376.798+1380.94+401.892+1381.29+426.979C1381.47+439.444+1380.1+453.557+1390.29+462.685C1403.69+474.665+1425.44+469.503+1441.39+466.132C1440.34+481.106+1444.56+496.019+1442.91+510.945C1430.4+517.503+1417.46+520.785+1403.27+521.174C1374.1+521.967+1341.64+513.906+1327.3+485.824C1317.68+466.973+1319.75+444.402+1319.92+423.909C1320.21+388.121+1320.17+352.333+1320.32+316.552C1309.51+311.554+1292.77+317.954+1280.98+315.403C1280.82+299.725+1281.05+283.923+1279.77+268.292Z" opacity="1" fill="#0a2340"/>
<path d="M1307.59-338.388C1316.15-363.899+1336.54-360.549+1359.39-360.651C1401.46-360.843+1443.52-360.658+1485.58-360.214C1500.11-360.056+1526.22-365.116+1539.07-358.032C1548.87-346.415+1556.06-332.727+1566.17-321.397C1570.49-316.555+1578.37-313.834+1581.79-308.781C1560.21-305.985+1535.17-309.882+1513.18-309.868C1464.18-309.848+1415.17-309.28+1366.17-308.938C1342.9-308.774+1303.37-302.333+1307.59-338.388Z" opacity="1" fill="#f68a0f"/>
<path d="M1478.85+191.766C1482.46+140.915+1560.79+150.275+1554.77+200.566C1549.25+246.774+1475.67+236.771+1478.85+191.766Z" opacity="1" fill="#081d39"/>
<path d="M1487.43+267.909C1507.73+268.826+1528.51+268.368+1548.84+267.567C1548.13+329.742+1549.05+392.06+1548.94+454.268C1548.91+468.805+1548.41+483.403+1548.82+497.933C1548.94+502.022+1551.03+512.744+1548.02+515.875C1528.45+515.349+1508.43+514.562+1488.88+515.458C1484.9+511.882+1486.61+503.144+1486.65+497.988C1486.76+483.431+1486.62+468.867+1486.58+454.309C1486.39+393.058+1481.17+328.819+1487.43+267.909Z" opacity="1" fill="#0b223f"/>
<path d="M1513.05-601.315C1517.29-633.027+1520.85-663.25+1530.93-693.889C1558.92-778.962+1629.38-865.178+1715.65-895.804C1720.04-889.219+1719.88-875.4+1721.1-867.4C1724.33-846.279+1726.94-824.747+1731.63-803.92C1727.88-798.47+1716.59-794.299+1710.83-790.258C1698.75-781.779+1687.56-772.186+1677.36-761.52C1630.24-712.275+1604.26-646.839+1606.02-578.511C1610.25-413.752+1784.03-294.805+1939.08-357.574C2007.96-385.458+2055.5-434.997+2085.92-502.183C2092.77-517.315+2095.11-532.843+2100.39-548.268C2114.5-522.026+2129.42-496.138+2144.34-470.32C2148.54-463.058+2161.14-448.364+2159.91-439.947C2103.57-325.773+1979.39-248.979+1852.16-248.556C1779.89-248.316+1706.67-272.727+1648.51-315.339C1621.72-334.969+1595.94-359.031+1576.88-386.388C1556.32-415.892+1538.39-448.774+1527.95-483.311C1516.71-520.556+1510.14-562.326+1513.05-601.315Z" opacity="1" fill="#0b2443"/>
<path d="M1539.73-1945.46C1543.11-1951.78+1546.05-1957.3+1550.85-1962.71C1562.52-1965.76+1576.34-1963.76+1588.38-1963.75C1613.46-1963.74+1638.53-1963.82+1663.61-1963.93C1712.61-1964.16+1761.62-1964.11+1810.63-1964.14C1834.51-1964.15+1859.3-1966.01+1883.08-1964.14C1882.11-1948.23+1879.84-1931.16+1881.72-1915.26C1857.34-1912.46+1831.5-1914.42+1806.9-1914.29C1760.27-1914.05+1713.65-1913.55+1667.02-1913.45C1642.07-1913.4+1617.11-1913.43+1592.15-1913.25C1578.23-1913.16+1562.57-1911.24+1548.97-1914.46C1540.78-1922.31+1536.34-1934.47+1539.73-1945.46Z" opacity="1" fill="#68aee5"/>
<path d="M1594.74-1185.49C1606.22-1186.76+1617.96-1185.99+1629.48-1185.58C1632.08-1185.49+1640.37-1186.36+1641.27-1183.53C1636.66-1094.19+1647.73-1003.41+1640.65-914.299C1632.04-905.821+1619.58-900.617+1610.06-893.075C1603.44-887.831+1598.4-879.687+1590.93-875.762C1584.7-895.961+1590.27-926.149+1590.3-947.393C1590.37-999.653+1590.47-1051.92+1590.26-1104.19C1590.16-1127.83+1583.01-1164.17+1594.74-1185.49Z" opacity="1" fill="#f98a0a"/>
<path d="M1622.06-1340.3C1614.44-1347.47+1607.26-1357.4+1598.34-1362.72C1607.95-1371.92+1620.56-1383.98+1632.78-1389.63C1647.88-1396.6+1672.48-1391.21+1688.71-1391.02C1731.63-1390.52+1774.58-1390.94+1817.5-1390.96C1843.59-1390.97+1875.43-1396.04+1900.82-1390.52C1899.98-1380.05+1899.76-1369.37+1900.38-1358.89C1900.58-1355.48+1902.08-1347.32+1900.1-1344.28C1830.36-1345.03+1760.69-1343.56+1690.98-1343.32C1673.72-1343.26+1656.41-1343.51+1639.16-1343.18C1633.64-1343.08+1626.05-1345.51+1622.06-1340.3Z" opacity="1" fill="#5eaee9"/>
<path d="M1598.48+366.07C1610.08+275.78+1721.08+232.532+1795.91+281.126C1839.24+309.263+1855.36+366.815+1848.34+416.087C1844.47+443.26+1832.32+471.239+1811.81+489.954C1766.46+531.335+1684.75+533.441+1637.77+493.81C1600.77+462.603+1592.6+411.773+1598.48+366.07ZM1662.86+369.427C1658.61+396.928+1660.17+436.58+1681.74+457.024C1703.24+477.4+1743.5+477.639+1764.82+456.709C1775.5+446.234+1780.18+430.467+1782.51+416.121C1787.07+388.108+1786.18+348.819+1764.05+327.793C1744.16+308.894+1708.35+305.626+1686.61+323.15C1672.53+334.515+1665.55+351.957+1662.86+369.427Z" opacity="1" fill="#0b2340"/>
<path d="M1693.91-1853.01C1704.38-1874.1+1725.29-1869.17+1745.68-1869.1C1791.58-1868.92+1837.65-1867.61+1883.52-1868.86C1882.81-1853.9+1881.57-1835.38+1884.53-1820.73C1844.01-1819.6+1803.3-1820.37+1762.76-1820.54C1744.52-1820.61+1722.74-1817.08+1704.89-1821.02C1691.41-1823.99+1691.11-1842.75+1693.91-1853.01Z" opacity="1" fill="#68ade3"/>
<path d="M1731.58-1175.82C1734.37-1194.19+1740.54-1210.97+1752.15-1225.69C1807.3-1295.62+1936.69-1251.11+1931.05-1159.92C1930.01-1143.06+1924.63-1127.1+1915.97-1112.67C1908.6-1100.38+1898.6-1090.01+1886.72-1082.01C1873.07-1072.81+1855.74-1066.59+1839.34-1065.14C1844.82-1020.5+1853.64-976.207+1858.76-931.502C1887.49-928.371+1918.41-931.591+1947.39-931.598C1992.78-931.619+2038.54-929.499+2083.89-931.386C2082.84-910.429+2083.13-889.041+2083.5-868.05C2083.65-859.407+2082.73-845.328+2086.22-837.479C2015.32-848.2+1939.81-838.272+1868.3-839.044C1874.31-809.369+1878.47-779.592+1882.27-749.554C1942.68-749.882+2003.2-749.978+2063.67-749.773C2093.85-749.67+2125.48-752.289+2155.45-749.014C2186.46-680.18+2228.52-614.203+2266.5-548.986C2281.31-523.544+2301.01-497.308+2311.96-470.032C2317.59-468.501+2330.24-478.949+2335.76-481.643C2359.84-493.369+2386.67-511.824+2412.59-518.402C2421.36-500.74+2430.75-483.311+2439.91-465.821C2443.75-458.477+2450.68-449.704+2452.24-441.595C2436.34-431.263+2415.32-423.981+2398.14-415.325C2356.28-394.244+2315.32-370.579+2273.07-350.449C2266.18-357.274+2261.44-369.807+2256.34-378.251C2244.77-397.424+2233.42-416.713+2221.99-435.968C2179.57-507.4+2139.24-579.858+2098.31-652.118C2079.46-659.564+2049.68-654.381+2029.44-654.641C1977.01-655.318+1924.58-654.764+1872.15-655.509C1850.75-655.817+1821.75-651.161+1801.39-657.458C1781.75-769.198+1768.08-882.791+1752.85-995.27C1747.86-1032.11+1742.92-1068.97+1737.81-1105.82C1734.63-1128.71+1729.49-1152.66+1731.58-1175.82Z" opacity="1" fill="#0b2341"/>
<path d="M1809.96-1757.23C1818.16-1781.52+1844.29-1775.32+1865.32-1775.37C1872.46-1775.39+1881.83-1777.61+1888.58-1775.13C1887.05-1760.95+1884.94-1739.26+1890.4-1725.83C1867.22-1734.37+1813.9-1708.46+1809.51-1746.15C1809.07-1749.96+1809.4-1753.46+1809.96-1757.23Z" opacity="1" fill="#5ea9df"/>
<path d="M1894.61+267.848C1906.69+267.581+1918.72+268.313+1930.79+268.128C1936.23+268.039+1945.26+266.391+1949.87+269.366C1950.51+280.696+1952.16+291.691+1953.22+302.925C1958.31+299.786+1961.78+292.299+1966+287.868C1975.85+277.523+1989.1+270.227+2002.72+266.179C2015.86+262.275+2029.44+261.407+2043.09+261.879C2053.31+262.241+2063.24+263.93+2072.89+267.39C2145.1+293.229+2126.73+387.485+2126.64+447.444C2126.61+469.578+2129.64+493.749+2126.85+515.657C2106.85+517.024+2086.5+513.981+2066.39+515.732C2059.24+506.891+2064.23+479.506+2064.27+467.971C2064.36+437.202+2064.1+406.487+2063.37+375.745C2063.04+361.612+2063.63+343.574+2055.51+331.287C2034.6+299.615+1977.02+315.732+1962.67+345.571C1955.48+360.511+1959.52+383.397+1959.48+399.588C1959.38+438.057+1957.72+476.935+1959.87+515.349C1939.63+514.986+1918.57+513.872+1898.41+515.793C1895.09+508.798+1896.72+500.026+1896.52+492.354C1896.11+476.231+1895.67+460.128+1895.52+443.991C1894.96+385.92+1900.13+325.632+1894.61+267.848Z" opacity="1" fill="#0c2341"/>
<path d="M1933.38-1965.52C1937.1-1999.17+1949.16-2034.26+1965.68-2063.71C2040.76-2197.57+2214.81-2245.23+2353.94-2188.12C2430.09-2156.87+2490.32-2092.66+2519.86-2016.3C2561.92-1907.62+2542.88-1783.36+2478.8-1687.4C2433.64-1619.78+2370.4-1564.36+2333.94-1491.04C2291.14-1404.99+2288.84-1299.26+2200.17-1242.57C2184.97-1232.85+2168.21-1226.2+2150.91-1221.25C2069.94-1198.05+1989.7-1238.44+1964.16-1318.72C1954.56-1348.87+1956.04-1381.32+1957.74-1412.51C1958.52-1426.83+1957.18-1443.32+1974.3-1448.56C1987.91-1452.73+2006.47-1441.92+2010.65-1428.49C2017.19-1407.41+2008.63-1379.25+2010.87-1357.02C2018.13-1284.92+2090.07-1252.95+2153.3-1280.45C2212.57-1306.23+2231.93-1369.08+2248.7-1425.71C2257.16-1454.29+2267.62-1481.94+2280.28-1508.9C2320.5-1594.54+2394.11-1656.43+2443.6-1735.89C2477.87-1790.91+2492.42-1860.57+2486.29-1924.75C2483.54-1953.66+2476.3-1980.74+2464.99-2007.48C2400.51-2159.82+2191.42-2205.6+2065.99-2100.01C2047.1-2084.1+2032.36-2066.41+2019.64-2045.31C1994.9-2004.3+1985.06-1955.86+1986.84-1908.29C1987.58-1888.38+1995.84-1857.76+1970.59-1848.69C1954.85-1843.04+1938.23-1854.16+1934.4-1869.48C1927.03-1898.96+1930.08-1935.62+1933.38-1965.52Z" opacity="1" fill="#0d2341"/>
<path d="M2005.05-1706.19C2010.75-1713.66+2016.96-1721.36+2026.11-1724.45C2038.38-1724.62+2046.62-1716.02+2054.4-1707.37C2072.52-1687.23+2099-1656.34+2097.36-1627.41C2096.06-1604.72+2079.92-1586.83+2080.98-1562.76C2082.22-1534.55+2115.22-1516.87+2139.04-1533.64C2156.69-1546.06+2156.51-1574.05+2164.53-1592.38C2182.16-1632.64+2225.94-1649.34+2219.57-1699.25C2214.94-1735.62+2192.62-1769.36+2162.68-1790.18C2137.42-1807.74+2108.56-1818.76+2085.63-1839.79C2058.98-1864.22+2045.91-1899.04+2045.66-1934.74C2045.55-1949.72+2047.28-1965.06+2051.8-1979.39C2094.23-2113.9+2283.8-2133.8+2372.35-2034.55C2425.51-1974.98+2441.57-1886.96+2420.55-1810.85C2414.4-1788.58+2405.55-1766.32+2393.05-1746.83C2384.64-1733.7+2371.39-1724.86+2355.56-1732.89C2344.08-1738.71+2335.23-1751.66+2339.96-1764.58C2345.96-1781+2357.16-1795.22+2363.11-1812C2380.12-1860.02+2378.94-1912.86+2357.55-1959.29C2319.16-2042.65+2194.9-2075.93+2128.42-2003.99C2120.32-1995.23+2112.95-1985.08+2107.96-1974.22C2103.84-1965.24+2100.8-1955.84+2099.91-1945.95C2094.44-1884.81+2151.24-1865.19+2192.34-1835C2218.07-1816.1+2240.47-1792.38+2255.16-1763.86C2278.77-1718.01+2280.15-1664.24+2253.65-1619.15C2243.14-1601.28+2222.61-1591+2213.43-1572.87C2206.31-1558.81+2206.39-1541.62+2201.03-1526.84C2192.96-1504.62+2175.62-1486.67+2154.16-1477.05C2092.01-1449.2+2028.05-1501.49+2026.45-1564.53C2026.1-1578.46+2028-1592.24+2032.79-1605.33C2036.04-1614.22+2043.04-1624.52+2041.62-1634.31C2039.24-1650.54+2023.28-1666.27+2013.03-1678.15C2005.97-1686.33+1999.6-1695.43+2005.05-1706.19Z" opacity="1" fill="#091f3c"/>
<path d="M2186.4+369.516C2186.93+365.243+2186.8+367.8+2186.25+361.831C2201.79+357.468+2221.85+360.621+2237.99+360.627C2273.55+360.648+2309.13+361.031+2344.69+360.675C2345.76+372.395+2344.05+384.367+2344.61+396.162C2344.84+401.072+2346.51+408.709+2344.37+413.277C2305.63+415.212+2266.52+413.838+2227.73+413.892C2217.96+413.906+2208.16+413.701+2198.39+413.961C2194.76+414.063+2189.34+415.554+2186.05+413.687C2186.48+398.973+2185.81+384.231+2186.4+369.516Z" opacity="1" fill="#0c2543"/>
<path d="M2198.83-968.467C2257.31-1001.53+2314.87-1039.09+2374.81-1069.24C2376.34-1051.01+2378.31-1029.14+2376.12-1011.04C2361.71-1006.3+2348.64-996.699+2335.52-989.178C2304.92-971.646+2274.37-953.39+2243.41-936.651C2242.76-931.981+2247.72-932.05+2251.18-930.292C2259.22-926.203+2267.17-921.636+2275.09-917.308C2297.46-905.082+2318.97-891.27+2341.36-879.058C2353.37-872.508+2369.46-866.778+2379.26-857.219C2381.13-838.08+2379.54-818.19+2379.04-798.997C2376.69-797.841+2369.33-804.925+2367.15-806.388C2357.34-812.966+2346.5-818.538+2336.28-824.487C2308.51-840.631+2280.2-855.885+2252.26-871.749C2235.39-881.321+2218.52-894.45+2199.85-900.166C2196.69-905.629+2198.6-913.492+2198.63-919.687C2198.69-934.846+2199.02-950.559+2197.18-965.609C2197.73-966.559+2198.29-967.509+2198.83-968.467Z" opacity="1" fill="#fb8a0a"/>
<path d="M2333.2-1340.19C2353.2-1398.24+2363.79-1466.87+2406.39-1514.16C2416.32-1517.48+2428.45-1514.73+2438.81-1514.68C2461.86-1514.56+2485.02-1514.08+2508.06-1514.76C2571.23-1516.63+2634.57-1515.68+2697.77-1515.68C2730.53-1515.67+2771.19-1520.3+2802.66-1510.24C2845.57-1496.51+2850.57-1457.39+2850.78-1418.65C2850.92-1394.05+2847.08-1367.9+2827.04-1351.11C2804.82-1332.47+2778.33-1332.84+2750.86-1332.86C2728.06-1332.89+2705.27-1332.84+2682.48-1333.03C2602.7-1333.7+2522.91-1333.23+2443.13-1333.23C2406.39-1333.23+2368.51-1335.99+2331.99-1334.23C2332.45-1338.05+2332.08-1336.05+2333.2-1340.19ZM2507.12-1432.56C2496.04-1394.4+2556.23-1377.29+2567.34-1416.68C2577.72-1453.47+2518.44-1471.56+2507.12-1432.56ZM2609.95-1432.51C2598.33-1394.24+2659.46-1376.34+2670.33-1416.61C2680.26-1453.36+2621.47-1470.43+2609.95-1432.51ZM2712.54-1432.53C2700.03-1396.12+2760.76-1376.84+2772.63-1413.12C2785.05-1451.1+2725.92-1471.5+2712.54-1432.53Z" opacity="1" fill="#fb8c0a"/>
<path d="M2391.48+420.58C2394.9+411.082+2398.72+402.056+2405.01+394.063C2428.33+364.408+2471.35+362.029+2505.97+364.313C2517.59+365.072+2529.8+368.559+2541.35+367.875C2540.48+357.325+2543.54+346.487+2539.96+336.087C2536.17+325.072+2524.17+318.385+2513.57+315.677C2490.51+309.783+2463.12+314.385+2441+322.152C2433.13+324.921+2424.77+332.409+2416.64+333.243C2413.77+317.557+2408.17+300.244+2407.82+284.443C2469.7+252.682+2592.12+243.356+2604.54+336.108C2608.71+367.328+2605.16+400.381+2605.53+431.827C2605.62+439.786+2602.94+461.174+2608.86+466.651C2616.52+468.306+2624.67+468.6+2632.18+470.713C2634.57+480.921+2635.4+503.78+2630.81+513.147C2613.44+522.829+2583.39+518.323+2567.72+507.082C2562.19+503.116+2555.73+488.573+2550.8+487.287C2520.95+528.409+2445.4+533.386+2409.52+497.947C2389.87+478.542+2384.99+446.658+2391.48+420.58ZM2449.63+434.364C2445.42+477.284+2501.29+486.282+2529.31+464.75C2544.3+453.236+2546.81+432.217+2542.56+414.884C2534.48+408.074+2522.74+407.595+2512.63+406.261C2484.84+402.603+2458.59+403.472+2449.63+434.364Z" opacity="1" fill="#f88a09"/>
<path d="M2401.62-730.785C2411.66-754.443+2416.43-780.952+2424.04-805.485C2434.87-840.33+2447.12-874.709+2458.19-909.472C2474.57-960.863+2491.22-1012.16+2507.61-1063.54C2515.45-1088.1+2525.23-1112.11+2531.35-1137.18C2543.46-1136.78+2555.77-1137.03+2567.89-1137.46C2572.27-1137.62+2579.11-1138.73+2583-1136.57C2564.49-1065.64+2539.22-995.968+2516.6-926.238C2495.43-860.973+2479.13-793.417+2455.5-729.048C2437.85-727.345+2418.65-728.685+2400.84-728.268C2401.1-729.11+2401.36-729.95+2401.62-730.785Z" opacity="1" fill="#fa8e0a"/>
<path d="M2449.12-1565.12C2462.62-1579.4+2474.4-1595.24+2482.99-1612.9C2519.85-1612.86+2560.91-1616.88+2597.27-1611.01C2614.29-1602.91+2618.57-1567.43+2595.61-1563.72C2577.48-1560.79+2557.18-1563.44+2538.83-1563.39C2508.9-1563.31+2478.29-1561.55+2448.54-1562.73C2448.73-1563.53+2448.92-1564.32+2449.12-1565.12Z" opacity="1" fill="#fb9112"/>
<path d="M2521.49-1661.55C2529.71-1675.76+2537.25-1690.18+2545.02-1704.64C2577.75-1705.01+2610.49-1704.94+2643.23-1705.03C2658.81-1705.07+2677.8-1707.59+2693-1703.93C2715.97-1698.41+2713.42-1670.46+2698.27-1658.63C2681.27-1653.4+2659.07-1657.15+2641.4-1657.13C2600.66-1657.07+2559.91-1657.05+2519.19-1657.29C2519.95-1658.7+2520.72-1660.12+2521.49-1661.55Z" opacity="1" fill="#fd900d"/>
<path d="M2613.9-1064.43C2617.71-1067.69+2620.41-1063.93+2624.28-1061.86C2635.02-1056.12+2645.53-1049.92+2656.15-1043.92C2685.88-1027.09+2715.58-1010.19+2745.32-993.376C2759.84-985.171+2778.49-978.231+2790.89-967.106C2791.75-952.043+2791.54-936.884+2791.48-921.8C2791.45-916.214+2793.66-907.735+2791.25-902.62C2776.34-891.345+2757.03-884.138+2740.73-874.88C2711.95-858.538+2683.45-841.287+2654.2-825.834C2643.87-820.385+2633.57-814.614+2623.83-808.193C2621.1-806.388+2615.41-800.904+2612.1-801.971C2611.92-820.132+2609.85-839.366+2611.09-857.417C2644.58-875.639+2677.44-895.243+2710.36-914.525C2719.46-919.858+2740.54-926.976+2745.72-936.398C2735.65-947.256+2717.8-951.564+2705.1-958.73C2675.27-975.55+2645.06-997.349+2612.62-1008.71C2610.55-1026.55+2613.04-1046.46+2613.9-1064.43Z" opacity="1" fill="#fa8a08"/>
<path d="M2651.29+219.116C2651.1+217.783+2650.91+216.456+2650.71+215.123C2668.05+206.624+2686.36+200.21+2703.62+191.54C2716.52+185.058+2727.8+173.448+2740.51+167.732C2745.61+165.434+2752.28+166.61+2757.66+166.747C2769.4+167.055+2783.14+164.655+2794.6+166.966C2795.04+246.72+2793.62+326.631+2793.48+406.426C2793.44+430.35+2793.25+454.296+2793.61+478.227C2793.79+490.583+2792.34+504.833+2795.99+516.737C2776.86+511.253+2750.27+514.118+2730.52+515.082C2726.47+511.39+2728.45+501.804+2728.53+496.436C2728.77+480.067+2728.38+463.643+2728.23+447.267C2727.6+378.419+2722.59+307.451+2728.23+238.795C2703.82+249.585+2680.96+262.46+2654.82+269.079C2649.01+256.99+2652.58+232.785+2651.29+219.116Z" opacity="1" fill="#fa9107"/>
<path d="M2859.4+218.754C2859.43+217.516+2859.47+216.272+2859.5+215.034C2881.15+206.2+2902.82+197.468+2923.22+185.906C2932.83+180.463+2939.73+170.986+2949.6+166.316C2962.57+165.715+2989.82+163.157+3001.78+168.395C2999.21+253.215+3001.44+338.617+3001.48+423.506C3001.49+446.72+3001.42+469.947+3001.75+493.161C3001.83+498.111+2999.58+512.538+3002.3+516.532C2980.72+513.407+2957.35+513.995+2935.58+514.733C2932.33+509.933+2934.73+499.116+2934.75+493.318C2934.81+475.738+2934.72+458.152+2934.7+440.566C2934.59+375.321+2937.84+309.147+2933.86+244.039C2909.79+247.212+2887.92+265.332+2863.24+269.646C2860.9+252.832+2861.42+235.643+2859.4+218.754Z" opacity="1" fill="#fa900a"/>
<path d="M3054.01+268.614C3075.12+267.335+3096.73+269.38+3117.73+266.952C3136.28+308.169+3150.83+353.427+3165.04+396.388C3170.04+411.485+3174.27+426.713+3178.74+441.961C3180.39+447.581+3180.79+454.72+3184.32+459.424C3190.31+447.007+3193.1+433.209+3197.78+420.272C3215.91+370.145+3229.5+317.885+3248.77+268.279C3269.48+269.838+3290.65+266.556+3311.23+269.113C3286.64+343.232+3256.17+415.909+3227.94+488.75C3213.19+526.795+3201.4+573.229+3168.77+600.327C3138.1+625.79+3101.74+619.103+3067.24+608.251C3065.78+594.733+3072.64+570.508+3077.92+557.817C3104.04+567.588+3126.92+568.607+3143.69+543.301C3147.19+538.015+3152.03+530.241+3151.24+523.554C3150+513.195+3143.73+502.638+3139.84+493.065C3132.79+475.663+3125.98+458.009+3119.48+440.388C3098.31+382.925+3074.3+326.385+3054.01+268.614Z" opacity="1" fill="#fb8f07"/>
<path d="M3314.29+482.07C3324.51+450.419+3370.91+470.501+3361.15+501.127C3351.51+531.41+3304.55+512.217+3314.29+482.07Z" opacity="1" fill="#041834"/>
<path d="M3378.35+350.473C3386.33+351+3394.33+350.665+3402.33+351.417C3408.55+345.044+3402.67+321.564+3405.71+311.909C3416.04+279.178+3459.01+275.342+3486.65+285.181C3486.78+295.882+3485.34+305.646+3484.25+316.292C3473.27+317.195+3462.28+314.07+3451.21+315.492C3444.38+326.617+3444.6+339.609+3443.63+352.224C3455.95+351.137+3471.24+350.829+3483.38+353.147C3483.96+362.138+3485.89+374.371+3480.92+382.385C3469.61+382.029+3457.84+383.711+3446.48+384.115C3443.99+412.942+3446.19+442.46+3446.28+471.369C3446.32+483.875+3443.35+502.214+3446.9+514.056C3433.09+513.284+3419.22+513.81+3405.4+513.386C3406.59+470.002+3404.4+426.378+3405.94+383.048C3401.96+379.253+3384.98+381.701+3379.49+382.07C3376.04+373.728+3377.29+359.328+3378.35+350.473Z" opacity="1" fill="#071f3c"/>
<path d="M3502.81+359.191C3503.66+357.844+3504.51+356.497+3505.35+355.151C3512.47+354.939+3533.96+350.795+3539.11+355.164C3539.67+362.48+3538.31+370.747+3536.9+377.927C3536.96+378.74+3541.77+374.22+3541.98+373.995C3544.92+370.856+3547.88+367.814+3550.7+364.552C3558.72+355.246+3570.41+351.397+3582.39+350.405C3584.84+350.2+3592.56+348.921+3593.88+350.583C3593.12+362.323+3590.85+378.822+3593.49+390.275C3576.17+388.381+3553.42+392.969+3544.34+410.357C3540.04+418.61+3542.14+433.386+3542.06+442.487C3541.85+466.152+3541.28+490.255+3542.8+513.879C3529.9+513.202+3516.81+514.426+3503.93+513.373C3503.94+462.651+3497.52+409.674+3502.81+359.191Z" opacity="1" fill="#081d39"/>
</g>
<g id=" Apprenez à développer accessible" inkpad:layerName=" Apprenez à développer accessible">
<text stroke="#11223f" font-family="'ArialMT'" stroke-width="0" fill="#11223f" font-size="64" opacity="1" transform="matrix(1 0 0 1 -80 -2800)" stroke-linejoin="round">
<textPath xlink:href="#TextPath" method="align" startOffset="0pt">
<![CDATA[tAppreneztàtdéveloppertaccessible]]></textPath>
</text>
</g>
</svg>
